<svg width="32" height="32" viewBox="0 0 32 32" fill="none" xmlns="http://www.w3.org/2000/svg">
<circle cx="16" cy="16" r="14" fill="#FFFF00"/>
<path d="M4.1704 6.99997C10.0063 6.99484 15.8422 6.99997 21.6781 7.01536C23.1862 7.11114 24.4938 7.69062 25.6012 8.75382C26.1677 9.3737 26.5677 10.0916 26.8012 10.9077C26.8114 10.8974 26.8217 10.8871 26.8319 10.8769C26.9142 11.2319 26.9809 11.5908 27.0319 11.9538C23.319 11.9436 19.6062 11.9538 15.8935 11.9846C15.6066 13.1612 15.3349 14.351 15.0781 15.5538C15.0268 15.8304 14.9947 16.1689 14.9536 16.4461C14.0838 16.4461 13.1378 16.4454 12.2319 16.4461C11.2657 16.4461 10.3031 16.4461 9.30886 16.4461C9.18578 16.4461 9.18578 16.4461 9.18578 16.3846C9.41055 15.4461 9.6208 14.523 9.81655 13.6154C9.87058 13.587 9.87572 13.5511 9.83193 13.5077C9.93384 12.9843 10.0569 12.4663 10.2012 11.9538C7.80117 11.9538 5.40117 11.9538 3.00116 11.9538C3.11485 11.4347 3.32424 10.3846 3.32424 10.3846C3.32424 10.3846 -0.271284 9.79726 2.99801 9.5C8.49896 8.99982 4.00116 8.49997 4.00116 8.49997C4.00116 8.49997 3.96529 7.82016 4.1704 6.99997Z" fill="black"/>
<path d="M2.9375 12.1074C2.97852 12.1279 2.97852 12.1279 2.9375 12.1074V12.1074Z" fill="black"/>
<path d="M21.369 14.1074C23.2562 14.1074 25.1434 14.1074 27.0305 14.1074C27.0341 14.4269 27.0135 14.7448 26.969 15.0613C26.5105 17.6625 25.2284 19.7292 23.1228 21.2613C21.6502 22.3817 19.9887 23.033 18.1382 23.2151C16.5589 23.2459 14.9794 23.2561 13.3998 23.2459C13.0659 24.8278 12.7171 26.4278 12.3536 28.0459C10.4767 28.0459 8.59976 28.0459 6.72284 28.0459C6.71976 27.8711 6.75567 27.707 6.83053 27.5536C7.11139 26.1724 7.41398 24.7827 7.73822 23.3843C7.95401 22.3339 8.17967 21.2672 8.41515 20.1843C8.49832 19.9341 8.61628 19.7033 8.76899 19.492C9.00093 19.1935 9.29324 18.9422 9.64592 18.7382C9.63567 18.7279 9.62539 18.7177 9.61515 18.7074C9.82856 18.6261 10.0388 18.5389 10.2459 18.4459C10.4538 18.3867 10.6641 18.3405 10.8767 18.3074C13.2869 18.2972 15.6972 18.2869 18.1075 18.2767C19.0095 18.1214 19.7428 17.6855 20.3075 16.969C20.7469 16.3409 21.0546 15.6538 21.2305 14.9074C21.2631 14.637 21.3093 14.3703 21.369 14.1074Z" fill="black"/>
</svg>
