<svg width="1040" height="1040" viewBox="0 0 1040 1040" xmlns="http://www.w3.org/2000/svg">
<path fill="#000000" d="M 131.5,231.5 C 321.167,231.333 510.834,231.5 700.5,232C 749.512,235.113 792.012,253.946 828,288.5C 846.411,308.646 859.411,331.979 867,358.5C 867.333,358.167 867.667,357.833 868,357.5C 870.673,369.036 872.84,380.703 874.5,392.5C 753.831,392.167 633.165,392.5 512.5,393.5C 503.178,431.74 494.345,470.407 486,509.5C 484.334,518.49 482.834,527.49 481.5,536.5C 452.275,537.81 422.942,538.476 393.5,538.5C 361.776,538.127 330.109,538.127 298.5,538.5C 297.476,537.147 296.143,536.48 294.5,536.5C 301.805,505.999 308.638,475.999 315,446.5C 316.756,445.579 316.923,444.412 315.5,443C 318.812,425.99 322.812,409.157 327.5,392.5C 249.5,392.5 171.5,392.5 93.5,392.5C 97.1947,375.628 100.695,358.628 104,341.5C 106.468,332.171 109.301,323.005 112.5,314C 111.941,313.275 111.608,312.442 111.5,311.5C 118.168,284.823 124.834,258.156 131.5,231.5 Z"/>
<path fill="#000000" d="M 95.5,393.5 C 96.8333,394.167 96.8333,394.167 95.5,393.5 Z"/>
<path fill="#000000" d="M 694.5,458.5 C 755.833,458.5 817.167,458.5 878.5,458.5C 878.615,468.882 877.948,479.215 876.5,489.5C 861.598,574.04 819.932,641.207 751.5,691C 703.64,727.415 649.64,748.582 589.5,754.5C 538.171,755.5 486.838,755.833 435.5,755.5C 424.648,806.911 413.315,858.911 401.5,911.5C 340.5,911.5 279.5,911.5 218.5,911.5C 218.4,905.818 219.567,900.485 222,895.5C 231.128,850.613 240.962,805.447 251.5,760C 258.513,725.859 265.847,691.192 273.5,656C 276.203,647.867 280.037,640.367 285,633.5C 292.538,623.796 302.038,615.63 313.5,609C 313.167,608.667 312.833,608.333 312.5,608C 319.436,605.356 326.27,602.523 333,599.5C 339.757,597.576 346.591,596.076 353.5,595C 431.833,594.667 510.167,594.333 588.5,594C 617.816,588.953 641.649,574.786 660,551.5C 674.283,531.089 684.283,508.756 690,484.5C 691.059,475.711 692.559,467.044 694.5,458.5 Z"/>
</svg>
